<svg width="256" height="256" viewBox="0 0 256 256" fill="none" xmlns="http://www.w3.org/2000/svg">
<g clip-path="url(#clip0_28136_45887)">
<path d="M128.012 252.844C196.858 252.844 252.846 196.834 252.846 128.01C252.846 59.186 196.836 3.1543 128.012 3.1543C59.188 3.1543 3.15625 59.1644 3.15625 128.01C3.15625 196.856 59.1664 252.844 127.991 252.844" fill="black"/>
<path d="M128.011 256C57.4147 256 0 198.585 0 128.011C0 57.4363 57.4147 0 128.011 0C198.607 0 256.022 57.4147 256.022 128.011C256.022 198.607 198.607 256.022 128.011 256.022V256ZM128.011 6.30978C60.9153 6.30978 6.30978 60.9153 6.30978 128.011C6.30978 195.106 60.8937 249.69 127.989 249.69C195.085 249.69 249.669 195.106 249.669 128.011C249.669 60.9153 195.106 6.30978 128.011 6.30978Z" fill="#F05662"/>
<path d="M57.6081 160.36V108.196L56.1819 123.819L51.7521 160.36L44.7509 160.381L40.8397 123.862L39.608 108.218V160.381L30.3594 160.403V91.8596L44.2323 91.838L47.949 118.806L49.3752 134.343L50.7149 118.784L54.1291 91.838L67.8075 91.8164V160.338L57.6081 160.36Z" fill="#F05662"/>
<path d="M73.168 160.338V91.795L95.3819 91.7734V101.649L83.7563 101.67V120.384H91.4707V129.74L83.7563 129.762V150.117H95.3819V160.295L73.168 160.338Z" fill="#F05662"/>
<path d="M126.673 160.25V108.065L125.225 123.71L120.795 160.25L113.794 160.272L109.883 123.731L108.651 108.108V160.272L99.4023 160.294V91.7502L113.297 91.7286L116.992 118.696L118.44 134.212L119.779 118.675L123.172 91.7286L136.85 91.707V160.229L126.673 160.25Z" fill="#F05662"/>
<path d="M157.441 133.023C157.441 130.971 156.815 130.041 155.496 130.041H152.817V150.635H155.496C156.836 150.635 157.441 149.792 157.441 147.739V133.023ZM157.441 104.219C157.441 102.166 156.815 101.345 155.496 101.345H152.817V121.311H155.496C156.836 121.311 157.441 120.382 157.441 118.308V104.219ZM156.815 160.186H142.207V91.6857H156.815C161.958 91.6641 167.619 94.5164 167.619 103.484V116.968C167.619 120.663 166.063 123.667 162.584 125.309C166.085 127.146 167.619 129.825 167.619 133.628V148.344C167.619 157.29 161.958 160.186 156.815 160.186Z" fill="#F05662"/>
<path d="M172.352 160.164V91.6428L194.587 91.5996V101.496H182.961V120.231L190.676 120.21V129.588H182.961V149.965L194.587 149.943V160.143L172.352 160.164Z" fill="#F05662"/>
<path d="M213.712 104.133C213.712 102.08 213.085 101.259 211.854 101.259H209.174V122.457H211.854C213.085 122.457 213.712 121.722 213.712 119.562V104.133ZM216.586 160.1C214.944 160.1 214.015 153.423 214.015 149.511V134.601C214.015 132.959 213.194 131.511 211.746 131.511H209.174V160.121H198.586V91.5997H212.891C218.142 91.5781 223.998 94.6466 223.998 103.593V119.237C223.998 122.436 222.248 125.093 219.46 126.952C222.248 128.81 224.3 131.36 224.3 134.774V148.669C224.3 152.99 224.927 156.491 225.64 159.776V160.078H216.586V160.1Z" fill="#F05662"/>
<path d="M176.132 162.845L179.892 190.245C180.583 195.28 177.061 199.947 172.005 200.639L93.2404 211.465C88.184 212.156 83.5381 208.634 82.8466 203.578L79.0866 176.178C78.3952 171.143 81.9174 166.475 86.9739 165.784L165.738 154.958C170.773 154.266 175.44 157.789 176.132 162.845Z" fill="white"/>
<path d="M93.6972 178.057C93.5675 177.106 93.2434 176.782 92.6599 176.847L91.385 177.02L92.8544 187.694L94.1293 187.521C94.6912 187.435 94.9289 187.024 94.7992 186.074L93.6972 178.057ZM95.1666 191.562L93.4162 191.8L95.1017 204.031L90.2397 204.7L85.918 173.26L92.5303 172.33C95.0369 171.985 97.7812 173.044 98.3431 177.257L99.4451 185.231C100.007 189.38 97.6732 191.195 95.1666 191.541" fill="#000006"/>
<path d="M107.246 176.176C107.116 175.225 106.792 174.901 106.209 174.966L104.977 175.139L106.317 184.863L107.548 184.69C108.11 184.603 108.348 184.236 108.218 183.242L107.246 176.154V176.176ZM112.108 201.674C111.352 201.783 110.509 198.779 110.249 196.985L109.299 190.135C109.191 189.379 108.715 188.774 108.067 188.86L106.879 189.033L108.672 202.15L103.81 202.82L99.4883 171.379L106.057 170.471C108.456 170.147 111.352 171.184 111.913 175.29L112.907 182.464C113.102 183.934 112.475 185.273 111.308 186.289C112.691 186.959 113.815 188.018 114.031 189.574L114.917 195.948C115.198 197.936 115.695 199.492 116.235 200.961V201.113L112.108 201.696V201.674Z" fill="#000006"/>
<path d="M117.81 200.876L113.488 169.436L118.35 168.766L122.672 200.206L117.81 200.876Z" fill="#000006"/>
<path d="M131.166 199.494C127.665 199.991 124.532 197.765 123.992 193.897L121.312 174.449C120.794 170.624 123.214 167.599 126.693 167.102C130.28 166.605 132.657 168.917 133.175 172.656L133.91 178.036L129.761 178.62L129.005 173.088C128.897 172.245 128.378 171.683 127.384 171.813C126.39 171.942 126.109 172.612 126.217 173.477L128.962 193.486C129.07 194.329 129.545 194.891 130.539 194.761C131.533 194.632 131.879 193.94 131.749 193.098L130.993 187.566L135.142 186.982L135.877 192.363C136.395 196.144 134.71 198.975 131.123 199.472" fill="#000006"/>
<path d="M138.666 197.98L134.344 166.539L139.206 165.848L143.528 197.289L138.666 197.98Z" fill="#000006"/>
<path d="M154.718 195.733L149.208 182.033L147.544 177.884L150.094 196.381L145.923 196.965L141.602 165.524L146.226 164.876L151.282 178.554L152.838 182.811L150.288 164.314L154.394 163.752L158.716 195.193L154.718 195.733Z" fill="#000006"/>
<path d="M170.236 193.573L169.48 191.995C169.004 193.508 167.751 194.394 166.325 194.61C163.019 195.064 160.577 192.946 160.058 189.186L157.314 169.177C156.838 165.784 159.064 162.629 162.543 162.154C166.044 161.657 168.831 164.12 169.285 167.513L170.085 173.325L165.547 173.952L164.726 167.966C164.618 167.21 164.121 166.756 163.278 166.864C162.478 166.972 162.024 167.577 162.133 168.312L164.963 188.949C165.071 189.748 165.676 190.245 166.476 190.137C167.319 190.029 167.708 189.381 167.6 188.581L166.714 182.163L165.482 182.336L164.963 178.555L170.906 177.734L173.045 193.227L170.214 193.616L170.236 193.573Z" fill="#000006"/>
<path d="M151.262 71.3749V81.9201H146.832V71.9368C146.832 69.603 145.428 68.3929 143.44 68.3929C141.279 68.3929 139.68 69.6678 139.68 72.6499V81.9201H135.25V64.741H139.161L139.68 66.6642C140.717 65.1084 142.489 64.2656 144.78 64.2656C148.41 64.2656 151.262 66.8155 151.262 71.3749Z" fill="white"/>
<path d="M166.539 71.7188C165.999 69.2338 164.141 68.2398 162.282 68.2398C159.906 68.2398 158.306 69.5147 157.788 71.7188H166.518H166.539ZM162.693 78.3744C163.838 78.3744 164.854 78.0502 165.61 77.5316C166.28 77.0778 167.123 77.013 167.836 77.402C169.133 78.1583 169.219 79.995 167.987 80.8594C166.539 81.8534 164.724 82.3936 162.65 82.3936C156.902 82.3936 153.25 78.4392 153.25 73.3179C153.25 68.1966 156.924 64.2422 162.304 64.2422C167.382 64.2422 170.969 68.2614 170.969 73.3179C170.969 73.9662 170.904 74.5496 170.796 75.133H157.874C158.501 77.402 160.381 78.3528 162.715 78.3528" fill="white"/>
<path d="M177.799 52.661C177.799 54.0656 176.675 55.1893 175.27 55.1893C173.866 55.1893 172.742 54.0656 172.742 52.661C172.742 51.2565 173.866 50.1328 175.27 50.1328C176.675 50.1328 177.799 51.2565 177.799 52.661Z" fill="#7B4C9E"/>
<path d="M177.799 59.8134C177.799 61.218 176.675 62.3416 175.27 62.3416C173.866 62.3416 172.742 61.218 172.742 59.8134C172.742 58.4088 173.866 57.2852 175.27 57.2852C176.675 57.2852 177.799 58.4088 177.799 59.8134Z" fill="#73C48F"/>
<path d="M177.799 66.9657C177.799 68.3703 176.675 69.494 175.27 69.494C173.866 69.494 172.742 68.3703 172.742 66.9657C172.742 65.5612 173.866 64.4375 175.27 64.4375C176.675 64.4375 177.799 65.5612 177.799 66.9657Z" fill="#F593A5"/>
<path d="M182.423 62.3416C181.04 62.3416 179.895 61.218 179.895 59.8134C179.895 58.4088 181.018 57.2852 182.423 57.2852C183.827 57.2852 184.929 58.4088 184.929 59.8134C184.929 61.218 183.806 62.3416 182.423 62.3416Z" fill="#1CA6DF"/>
<path d="M168.138 62.3416C166.755 62.3416 165.609 61.218 165.609 59.8134C165.609 58.4088 166.733 57.2852 168.138 57.2852C169.542 57.2852 170.644 58.4088 170.644 59.8134C170.644 61.218 169.521 62.3416 168.138 62.3416Z" fill="#F05662"/>
<path d="M173.582 80.2988V80.5365H174.036V81.9195H174.317V80.5365H174.771V80.2988H173.582Z" fill="white"/>
<path d="M176.263 80.2988L175.788 81.5954L175.313 80.2988H174.945V81.9195H175.205V80.6878L175.658 81.9195H175.918L176.393 80.6878V81.9195H176.652V80.2988H176.263Z" fill="white"/>
<path d="M124.595 68.2417C126.453 68.2417 128.29 69.2357 128.852 71.7207H120.122C120.641 69.5166 122.24 68.2417 124.617 68.2417M128.701 76.8636C127.923 77.7495 126.626 78.3762 125.027 78.3762C122.693 78.3762 120.813 77.4038 120.187 75.1565H133.109C133.217 74.573 133.282 73.9896 133.282 73.3413C133.282 68.2849 129.673 64.2656 124.617 64.2656C119.236 64.2656 115.562 68.22 115.562 73.3413C115.562 78.4626 119.193 82.4171 124.962 82.4171C128.16 82.4171 130.667 81.1421 132.288 78.938L128.701 76.8852V76.8636Z" fill="white"/>
<path d="M88.1651 67.7647C84.5348 66.6627 83.6057 65.8847 83.6057 64.3937C83.6057 63.0108 84.7725 61.9951 86.7606 61.9951C89.1808 61.9951 90.4773 63.2485 91.3416 65.0636L95.3177 62.7947C93.697 59.4237 90.6934 57.4141 86.7606 57.4141C82.8278 57.4141 78.8733 60.0287 78.8733 64.5666C78.8733 69.1044 82.4388 70.6819 86.1123 71.7407C89.6777 72.778 91.2984 73.4694 91.2984 75.2414C91.2984 76.5811 90.0667 78.0721 87.4088 77.9641C85.0102 77.856 83.6705 76.3434 83.0006 75.371C82.2659 74.3122 81.5744 73.275 80.0402 73.6207C78.506 73.9664 77.8145 75.4791 78.5276 77.0133C79.7377 79.628 82.4388 82.4371 87.344 82.4371C92.2492 82.4371 96.0524 79.6928 96.0524 75.1981C96.0524 70.2929 92.0115 69.018 88.2083 67.8079" fill="white"/>
<path d="M106.835 78.0087C104.199 78.0087 102.254 76.0423 102.254 73.3412C102.254 70.6401 104.199 68.6305 106.835 68.6305C108.564 68.6305 110.033 69.5165 110.725 70.8994L114.549 68.7169C113.145 66.0806 110.228 64.2871 106.878 64.2871C101.671 64.2871 97.8242 68.2415 97.8242 73.3628C97.8242 78.4841 101.671 82.4385 106.878 82.4385C110.228 82.4385 113.145 80.645 114.614 77.9655L110.768 75.7614C110.076 77.166 108.607 78.0303 106.835 78.0303" fill="white"/>
</g>
<defs>
<clipPath id="clip0_28136_45887">
<rect width="256" height="256" fill="white"/>
</clipPath>
</defs>
</svg>
