<svg width="55" height="48" viewBox="0 0 55 48" fill="none" xmlns="http://www.w3.org/2000/svg">
<path d="M27.8074 25.5596C27.9816 25.1169 28.3677 24.8579 28.9244 25.0734C29.6669 25.3606 31.2466 24.482 33.2848 24.9186C39.1484 26.175 43.1848 23.308 44.4412 17.4442C44.7027 16.2237 45.3475 15.351 45.8304 14.676C46.9973 12.8275 46.1008 10.9019 45.5153 9.97782C45.3494 9.71609 45.5175 9.37109 45.8254 9.33573L46.3983 9.26898C47.0147 9.23733 47.3439 9.74719 47.5364 10.0625C48.7849 12.1067 49.7192 13.992 50.2172 15.4599C50.3503 15.7582 50.4539 16.0627 50.5121 16.3618C50.6822 17.0974 50.6706 17.9374 50.5147 18.7456C48.7134 27.1522 42.214 33.085 32.0469 30.6957C31.2453 30.5076 30.4728 30.1818 29.868 29.7409C28.6175 28.892 27.6972 26.9886 27.6065 26.4971C27.547 26.1751 27.8074 25.5596 27.8074 25.5596Z" fill="#FFBB01"/>
<path d="M44.0001 20.2484C44.0001 25.0008 40.149 28.8519 35.3965 28.8519C30.6441 28.8519 26.793 25.0008 26.793 20.2484C26.793 15.4959 30.6441 11.6448 35.3965 11.6448C40.149 11.6448 44.0001 15.4959 44.0001 20.2484Z" fill="#FF3B48"/>
<path d="M33.9621 8.38066C33.9894 8.35335 34.044 8.35335 34.0713 8.367C35.1502 8.80401 36.0515 10.115 36.2837 11.7675C36.5158 13.4199 36.0106 14.9221 35.1092 15.6459C35.0819 15.6732 35.0273 15.6732 35 15.6596C33.9211 15.2225 33.0198 13.9115 32.7876 12.2591C32.5555 10.6203 33.0471 9.10445 33.9621 8.38066Z" fill="#23B574"/>
<path d="M37.6063 9.37764C37.6746 9.32302 37.7838 9.37764 37.7838 9.45958C37.7838 9.50055 37.7838 9.52787 37.7838 9.56884C37.8111 10.1288 37.8658 10.7296 37.8521 11.3032C37.8521 11.4125 37.975 11.4671 38.0433 11.3851C38.5486 10.8662 39.0539 10.3473 39.5865 9.85562C40.2147 9.26839 40.8702 8.7631 41.5394 8.25781H41.553C41.5667 8.28513 41.5667 8.29878 41.5803 8.32609C41.594 8.36706 41.5803 8.42169 41.553 8.449C40.2147 9.67809 38.9173 11.0164 37.7155 12.3684C37.5107 12.6006 37.3195 12.8191 37.1147 13.0512C37.06 13.1195 37.101 13.2288 37.1966 13.2424C38.0706 13.2971 38.931 13.42 39.7913 13.5565C39.8869 13.5702 39.9142 13.6794 39.8596 13.7477C39.7913 13.816 39.723 13.8843 39.6548 13.9526C39.6275 13.9799 39.5865 13.9935 39.5592 13.9799C38.6305 13.8297 37.7019 13.6931 36.7869 13.4746C36.7733 13.4746 36.7733 13.4746 36.7596 13.4609C36.4318 13.857 36.1041 14.253 35.79 14.6627C35.5851 14.9222 35.3939 15.1953 35.2164 15.4821C35.0798 15.4548 35.0662 15.4548 34.9296 15.4411C34.9023 15.3592 34.8887 15.2772 34.875 15.1817C34.875 15.1543 34.875 15.1134 34.9023 15.0861C35.0525 14.9085 35.1891 14.7173 35.3257 14.5535C35.9812 13.7068 36.6777 12.8737 37.4151 12.0816C37.4697 12.027 37.5244 11.9587 37.579 11.9041C37.6063 11.8768 37.62 11.8358 37.6063 11.7948C37.4424 11.0847 37.4424 10.3063 37.4151 9.58249C37.4151 9.56883 37.4151 9.54152 37.4151 9.52787C37.4561 9.47324 37.5244 9.41861 37.6063 9.37764Z" fill="#23B574"/>
<path d="M27.3876 3.98738L28.1503 3.98806C28.5049 3.98838 28.7926 3.70123 28.7931 3.34656L28.7953 0.648937C28.7956 0.294456 28.5086 0.00668961 28.1539 0.00643044L20.8746 2.70195e-07C20.52 -0.000321591 20.2324 0.286954 20.232 0.641562L20.2298 3.33906C20.2295 3.69367 20.5166 3.98137 20.8711 3.98176L21.6372 3.98245C19.954 7.85079 18.0267 10.6539 18.023 14.8263L18.0117 27.7239C18.01 29.7147 19.6225 31.3301 21.6134 31.3319L27.3638 31.3368C29.3546 31.3386 30.9699 29.726 30.9717 27.7352L30.983 14.8376C30.9866 10.6651 29.0638 7.85876 27.3876 3.98738Z" fill="#2C76EC"/>
<path d="M8.75966 28.0797C7.28178 26.6023 6.27524 24.7198 5.86731 22.6703C5.45939 20.6208 5.66842 18.4964 6.46796 16.5657C7.2675 14.635 8.62164 12.9848 10.3591 11.8237C12.0966 10.6627 14.1393 10.043 16.229 10.043C18.3187 10.043 20.3615 10.6627 22.099 11.8237C23.8364 12.9848 25.1906 14.635 25.9901 16.5657C26.7897 18.4964 26.9987 20.6208 26.5908 22.6703C26.1829 24.7198 25.1763 26.6023 23.6984 28.0797H8.75966Z" fill="#FF6A39"/>
<path d="M16.2278 10.0453C16.2278 10.0453 12.522 10.3214 10.4075 8.2042C8.69791 6.49466 8.56641 3.73309 8.56641 2.75471C8.56775 2.65513 8.60772 2.55997 8.67789 2.48931C8.74807 2.41865 8.84294 2.37801 8.94251 2.37598C9.93141 2.37598 12.6825 2.51537 14.392 4.21702C16.5039 6.33949 16.2278 10.0453 16.2278 10.0453Z" fill="#23B574"/>
<path d="M52.888 20.6078H1.24928C0.917952 20.6078 0.600192 20.7394 0.365906 20.9737C0.13162 21.208 0 21.5258 0 21.8571L0 25.4445C0.000696579 25.7754 0.132624 26.0925 0.366835 26.3262C0.601045 26.5599 0.918407 26.6912 1.24928 26.6912H3.25602C3.36403 26.6916 3.46818 26.7313 3.54901 26.803C3.62984 26.8746 3.68182 26.9732 3.69524 27.0804L5.74933 43.4999C5.90502 44.7421 6.50879 45.8848 7.44729 46.7133C8.38579 47.5419 9.59447 47.9994 10.8464 47.9999H43.2883C44.5417 48.0019 45.7526 47.5455 46.6929 46.7166C47.6332 45.8878 48.2379 44.7437 48.3932 43.4999L50.4473 27.0804C50.4613 26.973 50.5138 26.8744 50.5951 26.8028C50.6764 26.7312 50.7809 26.6915 50.8892 26.6912H52.8959C53.2268 26.6912 53.5441 26.5599 53.7784 26.3262C54.0126 26.0925 54.1445 25.7754 54.1452 25.4445V21.8571C54.1452 21.6924 54.1126 21.5293 54.0493 21.3772C53.9861 21.2251 53.8933 21.087 53.7765 20.9709C53.6597 20.8548 53.521 20.763 53.3685 20.7006C53.216 20.6383 53.0527 20.6068 52.888 20.6078ZM18.3132 41.5642C18.3228 41.8281 18.2792 42.0912 18.1849 42.3378C18.0905 42.5844 17.9475 42.8095 17.7642 42.9996C17.5809 43.1897 17.3612 43.3409 17.1182 43.4442C16.8752 43.5475 16.6139 43.6007 16.3498 43.6007C16.0858 43.6007 15.8244 43.5475 15.5814 43.4442C15.3384 43.3409 15.1187 43.1897 14.9354 42.9996C14.7521 42.8095 14.6091 42.5844 14.5148 42.3378C14.4204 42.0912 14.3768 41.8281 14.3865 41.5642V32.0302C14.4051 31.5219 14.6201 31.0407 14.9862 30.6877C15.3524 30.3346 15.8412 30.1374 16.3498 30.1374C16.8584 30.1374 17.3472 30.3346 17.7134 30.6877C18.0796 31.0407 18.2945 31.5219 18.3132 32.0302V41.5642ZM29.0307 41.5642C29.0403 41.8281 28.9967 42.0912 28.9024 42.3378C28.8081 42.5844 28.665 42.8095 28.4817 42.9996C28.2985 43.1897 28.0788 43.3409 27.8357 43.4442C27.5927 43.5475 27.3314 43.6007 27.0673 43.6007C26.8033 43.6007 26.5419 43.5475 26.2989 43.4442C26.0559 43.3409 25.8362 43.1897 25.6529 42.9996C25.4697 42.8095 25.3266 42.5844 25.2323 42.3378C25.138 42.0912 25.0943 41.8281 25.104 41.5642V32.0302C25.1226 31.5219 25.3376 31.0407 25.7038 30.6877C26.0699 30.3346 26.5587 30.1374 27.0673 30.1374C27.576 30.1374 28.0647 30.3346 28.4309 30.6877C28.7971 31.0407 29.0121 31.5219 29.0307 32.0302V41.5642ZM39.7508 41.5642C39.7605 41.8281 39.7169 42.0912 39.6225 42.3378C39.5282 42.5844 39.3852 42.8095 39.2019 42.9996C39.0186 43.1897 38.7989 43.3409 38.5559 43.4442C38.3129 43.5475 38.0515 43.6007 37.7875 43.6007C37.5234 43.6007 37.2621 43.5475 37.0191 43.4442C36.7761 43.3409 36.5563 43.1897 36.3731 42.9996C36.1898 42.8095 36.0467 42.5844 35.9524 42.3378C35.8581 42.0912 35.8145 41.8281 35.8241 41.5642V32.0302C35.8428 31.5219 36.0577 31.0407 36.4239 30.6877C36.7901 30.3346 37.2789 30.1374 37.7875 30.1374C38.2961 30.1374 38.7849 30.3346 39.1511 30.6877C39.5172 31.0407 39.7322 31.5219 39.7508 32.0302V41.5642Z" fill="#23B574"/>
<path d="M18.1864 42.3376C18.2808 42.091 18.3244 41.8279 18.3147 41.564V32.03C18.2961 31.5217 18.0811 31.0405 17.715 30.6875C17.3488 30.3345 16.86 30.1372 16.3514 30.1372C15.8428 30.1372 15.354 30.3345 14.9878 30.6875C14.6216 31.0405 14.4066 31.5217 14.388 32.03V41.564C14.3784 41.8279 14.422 42.091 14.5163 42.3376C14.6106 42.5842 14.7537 42.8093 14.937 42.9994C15.1202 43.1895 15.3399 43.3407 15.583 43.444C15.826 43.5473 16.0873 43.6005 16.3514 43.6005C16.6154 43.6005 16.8768 43.5473 17.1198 43.444C17.3628 43.3407 17.5825 43.1895 17.7658 42.9994C17.9491 42.8093 18.0921 42.5842 18.1864 42.3376Z" fill="black"/>
<path d="M28.904 42.3376C28.9983 42.091 29.0419 41.8279 29.0322 41.564V32.03C29.0136 31.5217 28.7986 31.0405 28.4325 30.6875C28.0663 30.3345 27.5775 30.1372 27.0689 30.1372C26.5603 30.1372 26.0715 30.3345 25.7053 30.6875C25.3392 31.0405 25.1242 31.5217 25.1056 32.03V41.564C25.0959 41.8279 25.1395 42.091 25.2338 42.3376C25.3282 42.5842 25.4712 42.8093 25.6545 42.9994C25.8378 43.1895 26.0575 43.3407 26.3005 43.444C26.5435 43.5473 26.8048 43.6005 27.0689 43.6005C27.333 43.6005 27.5943 43.5473 27.8373 43.444C28.0803 43.3407 28.3 43.1895 28.4833 42.9994C28.6666 42.8093 28.8096 42.5842 28.904 42.3376Z" fill="black"/>
<path d="M39.6241 42.3376C39.7184 42.091 39.7621 41.8279 39.7524 41.564V32.03C39.7338 31.5217 39.5188 31.0405 39.1526 30.6875C38.7865 30.3345 38.2977 30.1372 37.7891 30.1372C37.2804 30.1372 36.7916 30.3345 36.4255 30.6875C36.0593 31.0405 35.8443 31.5217 35.8257 32.03V41.564C35.8161 41.8279 35.8597 42.091 35.954 42.3376C36.0483 42.5842 36.1914 42.8093 36.3746 42.9994C36.5579 43.1895 36.7776 43.3407 37.0206 43.444C37.2637 43.5473 37.525 43.6005 37.7891 43.6005C38.0531 43.6005 38.3145 43.5473 38.5575 43.444C38.8005 43.3407 39.0202 43.1895 39.2035 42.9994C39.3867 42.8093 39.5298 42.5842 39.6241 42.3376Z" fill="black"/>
<path d="M45.8315 8.07817C46.8257 7.08393 46.8257 5.47196 45.8315 4.47772C44.8372 3.48348 43.2253 3.48348 42.231 4.47772L25.2925 21.4162C24.2983 22.4105 24.2983 24.0224 25.2925 25.0167C26.2868 26.0109 27.8987 26.0109 28.893 25.0167L45.8315 8.07817Z" fill="black"/>
</svg>
