<?xml version="1.0" encoding="iso-8859-1"?>
<!-- Uploaded to: SVG Repo, www.svgrepo.com, Generator: SVG Repo Mixer Tools -->
<svg height="800px" width="800px" version="1.1" id="Layer_1" xmlns="http://www.w3.org/2000/svg" xmlns:xlink="http://www.w3.org/1999/xlink" 
	 viewBox="0 0 508 508" xml:space="preserve">
<g>
	<path style="fill:#7D8B95;" d="M160,328v178h188V328c0-7.6-2.4-10-10-10H178C170,318,160,320.4,160,328z"/>
	<path style="fill:#7D8B95;" d="M32,124v382h100c0-8,0-12.4,0-18V124c0-7.6-2.4-10-10-10H50C42,114,32,116.4,32,124z"/>
	<path style="fill:#7D8B95;" d="M226,6h-48c-8,0-18,2.4-18,10v274h76V16C236,8.4,233.6,6,226,6z"/>
</g>
<g>
	<path style="fill:#F4EFEF;" d="M86,474c16.4,0,30-13.6,30-30s-13.6-30-30-30s-30,13.6-30,30S69.6,474,86,474z"/>
	<path style="fill:#F4EFEF;" d="M86,382c16.4,0,30-13.6,30-30s-13.6-30-30-30s-30,13.6-30,30S69.6,382,86,382z"/>
	<path style="fill:#F4EFEF;" d="M86,290c16.4,0,30-13.6,30-30s-13.6-30-30-30s-30,13.6-30,30S69.6,290,86,290z"/>
	<path style="fill:#F4EFEF;" d="M86,198c16.4,0,30-13.6,30-30s-13.6-30-30-30s-30,13.6-30,30S69.6,198,86,198z"/>
</g>
<g>
	<path style="fill:#354E5C;" d="M86,178c3.2,0,6.4-1.6,8.4-3.6c1.2-1.2,2.4-3.2,2-6c-1.6-9.6-8-10.4-9.6-10.4
		c-5.6,0-10.4,4.4-10.4,10S80.4,178,86,178z"/>
	<path style="fill:#354E5C;" d="M86,270c5.6,0,9.6-4.4,10-10c0-3.2-0.4-5.6-2-7.2c-2.4-2.8-6.8-2.8-7.6-2.8c-6,0-10.4,4.4-10.4,10
		S80.4,270,86,270z"/>
	<path style="fill:#354E5C;" d="M86,362c2.8,0,6-1.2,8-3.6c1.6-2,2.4-4,2-6.4c-1.2-9.6-9.6-10.4-10-10.4c-5.2,0-10,4.4-10,10
		S80.4,362,86,362z"/>
	<path style="fill:#354E5C;" d="M86,454c5.6,0,10-4.4,10-10c0-8.8-10-10-10.4-10c-5.2,0-9.6,4.4-9.6,10S80.4,454,86,454z"/>
</g>
<path style="fill:#7D8B95;" d="M376,124v382h100c0-8,0-12.4,0-18V124c0-7.6-2.4-10-10-10h-72C386,114,376,116.4,376,124z"/>
<g>
	<path style="fill:#F4EFEF;" d="M430,474c16.4,0,30-13.6,30-30s-13.6-30-30-30s-30,13.6-30,30S413.6,474,430,474z"/>
	<path style="fill:#F4EFEF;" d="M430,382c16.4,0,30-13.6,30-30s-13.6-30-30-30s-30,13.6-30,30S413.6,382,430,382z"/>
	<path style="fill:#F4EFEF;" d="M430,290c16.4,0,30-13.6,30-30s-13.6-30-30-30s-30,13.6-30,30S413.6,290,430,290z"/>
	<path style="fill:#F4EFEF;" d="M430,198c16.4,0,30-13.6,30-30s-13.6-30-30-30s-30,13.6-30,30S413.6,198,430,198z"/>
</g>
<g>
	<path style="fill:#354E5C;" d="M430,178c5.6,0,10-4.4,10-10c0-8.8-10-10-10.4-10c-5.2,0-9.6,4.4-9.6,10S424.4,178,430,178z"/>
	<path style="fill:#354E5C;" d="M430,270c5.6,0,10-4.4,10-10c0-9.2-9.6-10-10-10c-5.6,0-10,4.4-10,10S424.4,270,430,270z"/>
	<path style="fill:#354E5C;" d="M430,362c2.8,0,5.6-1.2,7.6-3.2c1.6-2,2.8-4.4,2.4-6.8c-0.4-9.6-9.2-10-10-10c-5.6,0-10,4.4-10,10
		S424.4,362,430,362z"/>
	<path style="fill:#354E5C;" d="M430,454c5.6,0,10-4.4,10-10c0-9.2-9.6-10-10-10c-5.6,0-10,4.4-10,10S424.4,454,430,454z"/>
	<path style="fill:#354E5C;" d="M258,470c34,0,62-28,62-62s-28-62-62-62s-62,28-62,62S224,470,258,470z"/>
</g>
<g>
	<path style="fill:#F4EFEF;" d="M258,438c16.4,0,30-13.6,30-30c0-1.6-0.4-3.2-0.4-5.2c0-0.8-0.4-1.6-0.4-2.4
		c-2-16.4-20-20.8-20.4-21.2c-2.8-0.8-5.6-1.2-8.8-1.2c-16.4,0-30,13.6-30,30S241.6,438,258,438z"/>
	<path style="fill:#F4EFEF;" d="M198,222c-10,0-18,8-18,18s8,18,18,18s18-8,18-18S208,222,198,222z"/>
	<path style="fill:#F4EFEF;" d="M198,158c-10,0-18,8-18,18s8,18,18,18s18-8,18-18C216,166.4,208,158,198,158z"/>
	<path style="fill:#F4EFEF;" d="M198,94c-10,0-18,8-18,18s8,18,18,18s18-8,18-18C216,102.4,208,94,198,94z"/>
	<path style="fill:#F4EFEF;" d="M198,30c-10,0-18,8-18,18s8,18,18,18s18-8,18-18C216,38.4,208,30,198,30z"/>
</g>
<path style="fill:#7D8B95;" d="M272,16v274h76V16c0-7.6-2.4-10-10-10h-48C282,6,272,8.4,272,16z"/>
<g>
	<path style="fill:#F4EFEF;" d="M310,258c10,0,18-8,18-18s-8-18-18-18s-18,8-18,18S300,258,310,258z"/>
	<path style="fill:#F4EFEF;" d="M310,194c10,0,18-8,18-18s-8-18-18-18s-18,8-18,18S300,194,310,194z"/>
	<path style="fill:#F4EFEF;" d="M310,130c10,0,18-8,18-18s-8-18-18-18s-18,8-18,18S300,130,310,130z"/>
	<path style="fill:#F4EFEF;" d="M310,66c10,0,18-8,18-18s-8-18-18-18s-18,8-18,18S300,66,310,66z"/>
</g>
<path d="M350,508H158c-2.4,0-4-1.6-4-4V328c0-7.2,3.2-16,18-16h166c11.2,0,16,4.8,16,16v176C354,506.4,352.4,508,350,508z M162,500
	h184V328c0-6.4-1.6-8-8-8H172c-8.4,0-10,3.2-10,8V500z"/>
<path d="M134,508H30c-2.4,0-4-1.6-4-4V124c0-6,2.4-16,18.4-16H122c11.2,0,16,4.8,16,16v380C138,506.4,136.4,508,134,508z M34,500h96
	V124c0-6.4-1.6-8-8-8H44.4c-8.4,0-10.4,3.2-10.4,8V500z"/>
<path d="M238,296h-80c-2.4,0-4-1.6-4-4V16c0-7.2,3.2-16,18-16h54c11.2,0,16,4.8,16,16v276C242,294.4,240.4,296,238,296z M162,288h72
	V16c0-6.4-1.6-8-8-8h-54c-8.4,0-10,3.2-10,8V288z"/>
<path d="M86,480c-20,0-36-16-36-36s16-36,36-36s36,16,36,36S106,480,86,480z M86,416c-15.6,0-28,12.4-28,28s12.4,28,28,28
	s28-12.4,28-28S101.6,416,86,416z"/>
<path d="M86,388c-20,0-36-16-36-36s16-36,36-36s36,16,36,36S106,388,86,388z M86,324c-15.6,0-28,12.4-28,28s12.4,28,28,28
	s28-12.4,28-28S101.6,324,86,324z"/>
<path d="M86,296c-20,0-36-16-36-36s16-36,36-36s36,16,36,36S106,296,86,296z M86,232c-15.6,0-28,12.4-28,28s12.4,28,28,28
	s28-12.4,28-28S101.6,232,86,232z"/>
<path d="M86,204c-20,0-36-16-36-36s16-36,36-36s36,16,36,36S106,204,86,204z M86,140c-15.6,0-28,12.4-28,28s12.4,28,28,28
	s28-12.4,28-28S101.6,140,86,140z"/>
<path d="M86,184c-8.8,0-16-7.2-16-16s7.2-16,16-16c2.4,0,4,1.6,4,4s-1.6,4-4,4c-4.4,0-8,3.6-8,8s3.6,8,8,8s8-3.6,8-8
	c0-2.4,1.6-4,4-4s4,1.6,4,4C102,176.8,94.8,184,86,184z"/>
<path d="M86,276c-8.8,0-16-7.2-16-16s7.2-16,16-16c2.4,0,4,1.6,4,4s-1.6,4-4,4c-4.4,0-8,3.6-8,8s3.6,8,8,8s8-3.6,8-8
	c0-2.4,1.6-4,4-4s4,1.6,4,4C102,268.8,94.8,276,86,276z"/>
<path d="M86,368c-8.8,0-16-7.2-16-16s7.2-16,16-16c2.4,0,4,1.6,4,4s-1.6,4-4,4c-4.4,0-8,3.6-8,8s3.6,8,8,8s8-3.6,8-8
	c0-2.4,1.6-4,4-4s4,1.6,4,4C102,360.8,94.8,368,86,368z"/>
<path d="M86,460c-8.8,0-16-7.2-16-16s7.2-16,16-16c2.4,0,4,1.6,4,4s-1.6,4-4,4c-4.4,0-8,3.6-8,8s3.6,8,8,8s8-3.6,8-8
	c0-2.4,1.6-4,4-4s4,1.6,4,4C102,452.8,94.8,460,86,460z"/>
<path d="M478,508H374c-2.4,0-4-1.6-4-4V124c0-10,7.6-16,20.4-16H462c12.4,0,20,6,20,16v380C482,506.4,480.4,508,478,508z M378,500
	h96V124c0-2,0-8-12-8h-71.6c-12.4,0-12.4,6-12.4,8V500z"/>
<path d="M430,480c-20,0-36-16-36-36s16-36,36-36s36,16,36,36S450,480,430,480z M430,416c-15.6,0-28,12.4-28,28s12.4,28,28,28
	s28-12.4,28-28S445.6,416,430,416z"/>
<path d="M430,388c-20,0-36-16-36-36s16-36,36-36s36,16,36,36S450,388,430,388z M430,324c-15.6,0-28,12.4-28,28s12.4,28,28,28
	s28-12.4,28-28S445.6,324,430,324z"/>
<path d="M430,296c-20,0-36-16-36-36s16-36,36-36s36,16,36,36S450,296,430,296z M430,232c-15.6,0-28,12.4-28,28s12.4,28,28,28
	s28-12.4,28-28S445.6,232,430,232z"/>
<path d="M430,204c-20,0-36-16-36-36s16-36,36-36s36,16,36,36S450,204,430,204z M430,140c-15.6,0-28,12.4-28,28s12.4,28,28,28
	s28-12.4,28-28S445.6,140,430,140z"/>
<path d="M430,184c-8.8,0-16-7.2-16-16s7.2-16,16-16c2.4,0,4,1.6,4,4s-1.6,4-4,4c-4.4,0-8,3.6-8,8s3.6,8,8,8s8-3.6,8-8
	c0-2.4,1.6-4,4-4s4,1.6,4,4C446,176.8,438.8,184,430,184z"/>
<path d="M430,276c-8.8,0-16-7.2-16-16s7.2-16,16-16c2.4,0,4,1.6,4,4s-1.6,4-4,4c-4.4,0-8,3.6-8,8s3.6,8,8,8s8-3.6,8-8
	c0-2.4,1.6-4,4-4s4,1.6,4,4C446,268.8,438.8,276,430,276z"/>
<path d="M430,368c-8.8,0-16-7.2-16-16s7.2-16,16-16c2.4,0,4,1.6,4,4s-1.6,4-4,4c-4.4,0-8,3.6-8,8s3.6,8,8,8s8-3.6,8-8
	c0-2.4,1.6-4,4-4s4,1.6,4,4C446,360.8,438.8,368,430,368z"/>
<path d="M430,460c-8.8,0-16-7.2-16-16s7.2-16,16-16c2.4,0,4,1.6,4,4s-1.6,4-4,4c-4.4,0-8,3.6-8,8s3.6,8,8,8s8-3.6,8-8
	c0-2.4,1.6-4,4-4s4,1.6,4,4C446,452.8,438.8,460,430,460z"/>
<path d="M258,476c-37.6,0-68-30.4-68-68s30.4-68,68-68s68,30.4,68,68S295.6,476,258,476z M258,348c-33.2,0-60,26.8-60,60
	s26.8,60,60,60s60-26.8,60-60S291.2,348,258,348z"/>
<path d="M258,444c-20,0-36-16-36-36s16-36,36-36c3.6,0,6.8,0.4,10.4,1.6c2,0.8,3.2,2.8,2.8,4.8c-0.8,2-2.8,3.2-4.8,2.8
	c-2.4-0.8-5.2-1.2-8-1.2c-15.6,0-28,12.4-28,28s12.4,28,28,28s28-12.4,28-28c0-2.4-0.4-4.8-0.8-6.8c-0.4-2,0.8-4.4,2.8-4.8
	s4.4,0.8,4.8,2.8c0.8,2.8,1.2,6,1.2,8.8C294,428,278,444,258,444z"/>
<path d="M198,264c-13.2,0-24-10.8-24-24s10.8-24,24-24s24,10.8,24,24S211.2,264,198,264z M198,224c-8.8,0-16,7.2-16,16s7.2,16,16,16
	s16-7.2,16-16S206.8,224,198,224z"/>
<path d="M198,200c-13.2,0-24-10.8-24-24s10.8-24,24-24s24,10.8,24,24S211.2,200,198,200z M198,160c-8.8,0-16,7.2-16,16s7.2,16,16,16
	s16-7.2,16-16S206.8,160,198,160z"/>
<path d="M198,136c-13.2,0-24-10.8-24-24s10.8-24,24-24s24,10.8,24,24S211.2,136,198,136z M198,96c-8.8,0-16,7.2-16,16s7.2,16,16,16
	s16-7.2,16-16S206.8,96,198,96z"/>
<path d="M198,72c-13.2,0-24-10.8-24-24s10.8-24,24-24s24,10.8,24,24S211.2,72,198,72z M198,32c-8.8,0-16,7.2-16,16s7.2,16,16,16
	s16-7.2,16-16S206.8,32,198,32z"/>
<path d="M350,296h-80c-2.4,0-4-1.6-4-4V16c0-7.2,3.2-16,18-16h54c11.2,0,16,4.8,16,16v276C354,294.4,352.4,296,350,296z M274,288h72
	V16c0-6.4-1.6-8-8-8h-54c-8.4,0-10,2.8-10,8V288z"/>
<path d="M310,264c-13.2,0-24-10.8-24-24s10.8-24,24-24s24,10.8,24,24S323.2,264,310,264z M310,224c-8.8,0-16,7.2-16,16s7.2,16,16,16
	s16-7.2,16-16S318.8,224,310,224z"/>
<path d="M310,200c-13.2,0-24-10.8-24-24s10.8-24,24-24s24,10.8,24,24S323.2,200,310,200z M310,160c-8.8,0-16,7.2-16,16s7.2,16,16,16
	s16-7.2,16-16S318.8,160,310,160z"/>
<path d="M310,136c-13.2,0-24-10.8-24-24s10.8-24,24-24s24,10.8,24,24S323.2,136,310,136z M310,96c-8.8,0-16,7.2-16,16s7.2,16,16,16
	s16-7.2,16-16S318.8,96,310,96z"/>
<path d="M310,72c-13.2,0-24-10.8-24-24s10.8-24,24-24s24,10.8,24,24S323.2,72,310,72z M310,32c-8.8,0-16,7.2-16,16s7.2,16,16,16
	s16-7.2,16-16S318.8,32,310,32z"/>
</svg>